<svg width="541" height="412" viewBox="0 0 541 412" fill="none" xmlns="http://www.w3.org/2000/svg">
<path fill-rule="evenodd" clip-rule="evenodd" d="M237.213 179.967C232.405 183.506 233.17 190.47 234.618 195.529C236.749 202.979 240.994 209.875 245.837 215.82C254.428 226.366 269.012 238.207 282.456 228.949C294.428 220.703 301.979 204.066 304.586 190.052C305.392 185.721 306.465 179.268 302.679 176.013C297.084 171.2 287.212 172.075 280.456 172.695C276.007 173.103 271.715 174.487 267.318 173.838C257.103 172.326 245.734 173.695 237.213 179.967Z" fill="#B79DDD"/>
<path fill-rule="evenodd" clip-rule="evenodd" d="M444.329 235.153C434.59 247.698 418.031 249.68 403.324 249.557C394.494 249.483 385.645 248.808 376.988 246.981C372.32 245.995 367.684 244.69 363.174 243.122C360.195 242.086 355.76 241.568 354.492 238.327C351.149 229.776 353.609 219.052 354.986 210.372C355.686 205.957 356.212 201.515 356.894 197.097C357.329 194.27 357.538 191.142 358.705 188.498C360.071 185.399 361.796 186.018 364.686 186.874C368.667 188.054 372.754 188.544 376.847 189.179C386.836 190.728 395.55 193.851 404.628 198.278C413.604 202.654 422.312 206.975 430.318 213.06C434.375 216.145 437.87 219.492 441.127 223.423C443.643 226.46 447.397 231.201 444.329 235.153ZM401.755 290.874C401.677 292.225 386.412 288.147 384.404 287.689C371.224 284.688 357.783 281.269 345.34 275.845C333.726 270.783 323.493 264.992 314.354 255.998C310.094 251.806 306.262 247.391 302.595 242.689C300.758 240.333 298.247 240.606 296.198 238.613C294.355 236.818 292.941 235.417 293.517 232.735C298.123 233.967 306.628 241.714 311.403 237.802C314.124 235.572 310.35 233.243 308.607 231.951C305.332 229.522 302.53 226.524 299.926 223.379C304.397 224.259 308.559 225.959 312.45 228.326C314.179 229.377 320.104 233.19 321.484 229.555C322.333 227.318 318.315 224.506 317.062 223.268C313.986 220.229 310.665 216.681 309.032 212.595C313.07 211.644 316.876 214.812 319.626 217.393C322.678 220.259 326.42 223.266 328.98 226.568C330.3 228.271 330.587 230.283 331.619 232.12C332.779 234.186 334.636 235.957 336.41 237.486C339.829 240.433 343.827 242.603 347.931 244.397C357.309 248.497 367.361 251.398 377.357 253.434C382.262 254.433 387.045 254.892 392.023 255.062C395.891 255.194 397.603 256.369 399.08 259.988C403.077 269.781 402.352 280.554 401.755 290.874ZM286.961 216.253C284.724 218.378 281.818 219.711 279.48 221.754C277.422 223.551 275.05 225.469 272.754 226.923C270.302 228.474 268.471 227.386 266.264 225.983C263.673 224.336 260.695 223.668 258.026 222.194C248.8 217.095 237.513 204.601 239.235 193.13C239.965 188.268 242.441 183.484 246.936 181.277C251.019 179.275 256.954 178.163 261.322 179.837C263.785 180.782 265.548 182.867 267.127 184.918C268.968 187.308 269.673 186.931 271.547 184.626C274.902 180.502 280.433 176.884 285.902 176.971C288.62 177.015 291.319 177.597 293.768 178.742C294.099 178.898 294.284 179.368 294.617 179.527C295.026 179.723 295.698 179.316 295.982 179.498C296.699 179.959 297.415 181.399 297.828 182.129C299.487 185.06 302.474 190.808 299.464 193.275C299.464 193.275 299.598 196.614 299.556 196.994C299.344 198.986 298.666 200.63 297.793 202.451C295.17 207.921 291.298 212.133 286.961 216.253ZM291.42 262.538C289.302 263.207 287.019 256.465 289.052 255.389C290.99 254.362 293.339 261.933 291.42 262.538ZM258.142 254.477C257.409 257.024 257.099 259.914 255.304 261.987C253.661 260.007 253.499 256.355 255.092 254.319C256.002 253.158 258.945 251.694 258.142 254.477ZM325.944 209.854C325.933 209.918 328.494 211.162 327.245 212.522C325.537 214.38 325.772 210.764 325.944 209.854ZM336.529 189.097C336.5 191.672 331.132 191.051 331.17 188.461C331.217 185.273 336.561 186.367 336.529 189.097ZM330.121 167.575C330.652 165.217 339.991 161.937 339.736 166.047C339.609 168.107 328.994 172.588 330.121 167.575ZM234.387 247.531C233.34 248.809 231.853 249.313 230.599 250.294C229.282 251.322 228.342 252.655 227.193 253.862C224.037 257.175 220.238 259.898 216.833 262.942C210.573 268.537 204.577 274.552 197.637 279.297C185.234 287.776 170.852 292.413 156.574 296.474C155.392 296.81 151.984 298.168 150.814 297.157C149.552 296.066 150.194 292.228 150.252 290.777C150.489 284.827 151.172 278.807 151.098 272.866C151.067 270.426 150.364 266.957 151.617 264.724C153.017 262.231 156.926 261.501 159.344 260.563C166.693 257.711 173.773 252.899 180.265 248.444C188.245 242.965 196.305 237.396 204.517 232.283C212.563 227.273 221.438 223.918 230.414 221.056C230.829 221.944 226.547 224.799 226.057 225.199C223.709 227.118 221.155 229.108 219.412 231.642C218.178 233.436 216.912 237.494 220.32 237.598C221.971 237.649 224.413 236.027 225.911 235.502C228.384 234.635 230.933 234.027 233.521 233.631C231.296 236.118 223.756 240.585 225.128 244.722C226.459 248.735 234.158 244.052 236.808 244.052C236.374 245.451 235.282 246.439 234.387 247.531ZM143.429 258.734C138.498 260.495 133.444 261.496 128.355 262.632C123.505 263.716 119.021 264.532 114.053 263.898C107.194 263.022 99.6031 260.137 98.7334 252.223C97.7022 242.846 104.224 234.228 109.824 227.501C116.64 219.315 124.294 211.998 132.588 205.372C140.873 198.752 149.816 192.916 159.185 187.989C166.312 184.241 174.363 181.966 181.899 179.152C183.333 178.618 187.298 176.737 188.639 178.296C189.723 179.556 188.248 181.655 187.754 182.825C186.791 185.106 186.658 187.403 186.409 189.852C185.298 200.789 183.96 211.723 183.345 222.707C183.174 225.769 182.872 228.971 183.048 232.034C183.145 233.731 184.014 235.892 183.435 237.549C182.322 240.733 177.224 242.841 174.523 244.263C169.686 246.81 164.565 248.71 159.678 251.146C154.312 253.821 149.087 256.712 143.429 258.734ZM211.81 187.667C213.164 187.478 215.191 187.103 216.398 187.994C217.971 189.155 217.558 190.77 216.105 191.612C214.958 192.278 212.272 192.46 211.138 191.856C209.206 190.827 209.533 187.985 211.81 187.667ZM219.306 212.993C218.212 214.842 214.215 216.055 214.563 212.604C214.862 209.648 221.32 209.587 219.306 212.993ZM217.822 160.887C219.58 161.579 222.771 162.17 223.292 164.467C223.777 166.604 221.783 166.463 220.343 165.875C219.159 165.392 213.885 160.85 217.822 160.887ZM493.285 242.423C492.259 238.365 493.041 233.873 492.474 229.717C491.924 225.689 490.935 221.986 489.516 218.19C486.373 209.785 482.772 202.219 477.677 194.842C468.082 180.95 456.95 168.714 443.508 158.567C430.237 148.551 415.542 140.41 399.975 134.705C383.468 128.654 366.852 126.548 349.444 125.389C344.246 125.043 339.052 124.632 333.883 123.965C330.105 123.478 325.369 122.878 321.634 124.053C319.288 124.791 317.976 126.869 320.533 128.233C322.345 129.2 324.718 129.315 326.72 129.572C324.302 137.373 320.368 145.2 314.132 150.571C308.045 155.815 299.899 157.613 292.217 158.942C288.051 159.663 283.387 160.221 279.156 159.91C276.482 159.714 274.395 158.456 273.315 161.253C272.567 163.197 272.212 165.33 271.225 162.395C270.057 158.926 269.484 158.948 265.852 157.962C258.423 155.947 249.907 154.109 243.426 149.751C236.702 145.229 234.364 137.915 230.61 131.105C229.682 129.421 226.882 126.014 228.312 124.085C229.621 122.321 233.876 122.497 235.824 122.313C237.88 122.119 239.949 122.111 242.012 122.029C243.207 121.983 245.612 122.48 245.13 120.667C244.405 117.935 236.632 118.285 234.703 118.241C231.113 118.159 227.474 118.243 223.903 118.644C206.195 120.633 188.328 124.31 171.192 129.213C137.946 138.725 105.747 156.254 81.4843 181.506C58.1944 205.746 50.8158 246.083 65.1333 277.032C72.5742 293.118 88.7218 299.725 104.375 305.062C112.631 307.876 121.374 310.078 130.151 309.547C134.363 309.292 138.359 308.141 142.467 307.273C144.258 306.894 146.297 306.291 148.137 306.443C149.53 306.559 150.868 307.857 152.175 307.167C153.102 306.677 153.505 305.272 154.638 304.673C155.999 303.955 157.649 303.695 159.118 303.333C163.203 302.325 167.158 300.691 171.15 299.352C175.279 297.966 179.176 296.182 183.137 294.378C185.137 293.467 189.766 289.763 191.07 292.471C191.663 293.707 191.41 296.091 191.555 297.387C191.809 299.654 192.107 301.916 192.433 304.173C193.15 309.143 194.009 314.093 194.889 319.036C196.478 327.955 198.526 336.493 201.949 344.883C204.683 351.582 207.082 359.175 212.159 364.504C214.374 366.83 217.397 367.877 220.576 367.146C224.191 366.314 225.99 362.98 228.185 360.284C233.013 354.352 240.985 349.806 248.346 348.17C257.36 346.166 266.14 349.097 274.744 351.588C283.845 354.223 293.11 356.734 302.043 359.901C310.368 362.853 319.356 367.213 328.383 366.833C336.256 366.503 343.609 359.997 349.287 355.037C354.989 350.057 362.12 342.764 370.319 343.351C374.39 343.642 378.101 345.636 382.066 346.447C386.42 347.337 391.053 347.464 395.48 347.796C400.976 348.207 413.272 346.752 415.305 340.039C415.606 339.043 415.608 336.992 414.313 336.593C413.121 336.227 412.512 337.642 411.384 337.577C409.087 337.446 407.293 333.38 406.031 331.805C400.94 325.451 393.956 320.711 388.242 314.971C381.791 308.489 376.283 300.636 371.422 292.891C373.62 292.311 375.991 293.274 378.118 293.732C380.702 294.288 383.221 294.959 385.767 295.671C388.574 296.456 391.421 296.996 394.27 297.594C396.396 298.039 399.217 298.174 401.135 299.256C402.81 300.202 403.745 301.217 405.824 301.491C407.938 301.77 410.109 301.535 412.233 301.52C417.978 301.48 423.712 301.372 429.43 300.756C449.635 298.576 471.052 289.898 483.202 272.676C486.506 267.992 489.169 262.802 490.851 257.296C492.164 252.996 494.428 246.937 493.285 242.423Z" fill="#6E3CBC"/>
<path fill-rule="evenodd" clip-rule="evenodd" d="M259.461 93.4714C255.866 94.6044 251.616 93.2713 249.549 90.0123C247.447 86.6986 246.009 82.864 245.72 78.9168C245.443 75.1347 246.289 71.3055 248.485 68.2005C250.823 64.8975 255.587 61.1954 259.858 62.3424C260.758 62.5843 261.571 63.1664 262.379 63.7441C263.235 64.3568 264.084 64.9646 265.02 65.1545C265.261 65.2033 265.43 65.2494 265.555 65.2832C265.725 65.3294 265.815 65.354 265.896 65.3353C265.988 65.3138 266.067 65.236 266.238 65.0692C266.334 64.9737 266.461 64.8492 266.636 64.6899C266.998 64.3621 267.347 63.8686 267.688 63.3858C267.918 63.0612 268.145 62.7409 268.369 62.4797C268.8 61.977 269.231 61.469 269.663 60.9599C272.441 57.6875 275.272 54.3523 278.667 51.7641C285.701 46.4011 295.051 43.8681 303.778 43.994C309.088 44.0704 314.065 45.6691 319.013 47.4867C319.428 47.6392 319.846 47.7906 320.265 47.9425L320.266 47.9431C324.24 49.383 328.338 50.8682 331.52 53.7531C337.848 59.4916 339.497 68.9928 340.532 77.1212C341.653 85.924 338.564 93.4972 335.363 101.343L335.362 101.346C334.875 102.54 334.385 103.74 333.907 104.952C330.524 113.534 324.314 120.487 316.932 125.786C313.064 128.561 308.79 130.236 304.318 131.705C303.391 132.01 302.469 132.336 301.548 132.661C297.96 133.929 294.384 135.193 290.517 135.187C283.136 135.177 273.687 131.617 270.543 124.234C269.112 120.872 270.506 120.269 273.37 122.096C273.871 122.415 274.369 122.737 274.867 123.059L274.869 123.061C278.505 125.412 282.117 127.749 286.387 128.783C295.803 131.064 307.082 127.53 315.339 122.867C323.593 118.206 329.135 111.203 332.838 102.484C336.574 93.6871 338.026 85.019 336.585 75.536C335.365 67.4993 332.935 60.1584 325.803 55.796C310.406 46.3795 289.662 47.1382 275.97 59.3757C274.092 61.0532 272.236 62.6857 270.301 64.2881C269.07 65.3063 267.622 66.5278 267.801 68.2885C267.84 68.6769 268.079 69.3512 268.348 70.1071C269.121 72.2872 270.138 75.1503 267.307 73.8247C266.14 73.2781 265.174 72.534 264.222 71.8006C262.653 70.5925 261.123 69.4134 258.792 69.1956C254.807 68.8222 250.054 71.9305 248.862 75.8429C247.725 79.5761 249.752 84.6837 252.928 86.8247C254.715 88.0296 256.665 87.9706 258.682 87.9094C258.884 87.9035 259.088 87.8971 259.292 87.8923C259.448 87.8885 259.642 87.8783 259.863 87.8665C261.22 87.7935 263.589 87.6669 264.22 88.69C265.518 90.7945 260.939 93.0063 259.461 93.4714ZM307.431 110.125C308.106 108.778 308.774 107.446 309.53 106.242C309.88 105.683 310.452 105.298 310.999 104.928C311.157 104.822 311.313 104.717 311.461 104.609C313.307 107.531 311.483 110.661 309.912 113.356C309.729 113.669 309.55 113.975 309.381 114.275C308.884 115.155 308.399 116.071 307.909 116.996C306.863 118.97 305.798 120.98 304.563 122.748C301.553 127.054 295.004 122.395 294.81 117.969C294.661 114.581 297.024 116.055 298.542 117.321C300.103 118.624 300.843 118.949 302.48 117.525C304.681 115.611 306.071 112.837 307.431 110.125ZM289.703 98.1901C290.365 93.7461 287.369 97.1971 286.728 99.241C285.937 101.763 285.282 105.325 286.479 107.828C288.676 112.421 294.87 110.232 297.852 107.792C299.249 106.647 301.208 104.264 301.141 102.277C301.025 98.821 298.403 100.893 296.79 102.168C296.585 102.33 296.395 102.48 296.229 102.604C296.163 102.653 296.091 102.707 296.017 102.762C294.521 103.885 291.547 106.115 289.805 105.011C288.204 103.998 288.845 101.591 289.351 99.697C289.502 99.1321 289.64 98.6128 289.703 98.1901ZM298.565 80.2676C302.103 79.5525 306.658 79.921 309.736 81.9574C313.701 84.5807 308.487 86.4696 306.229 86.7045C303.495 86.9878 299.999 87.1755 297.488 85.8135C293.929 83.8828 295.116 80.966 298.565 80.2676ZM258.18 73.6064C255.475 73.0726 251.701 74.4588 253.563 77.7248C254.952 80.1624 258.376 80.9827 261.055 81.6248C261.38 81.7026 261.695 81.7782 261.994 81.8533C264.972 82.6044 266.446 81.4971 265.42 78.1609C264.427 74.932 261.096 74.1825 258.18 73.6064ZM314.654 107.767C314.903 106.712 316.354 102.746 317.335 105.658C317.485 106.105 317.504 106.762 317.523 107.463C317.573 109.235 317.63 111.294 319.85 110.995C320.995 110.841 321.538 109.674 322.041 108.592C322.29 108.056 322.53 107.541 322.828 107.181C325.855 103.52 324.927 110.443 324.136 112.176C322.392 115.995 317.513 118.626 315.092 113.781C314.192 111.979 314.196 109.705 314.654 107.767ZM326.05 92.3733C327.455 94.0293 329.796 96.7905 331.331 94.7906C332.829 92.8384 330.251 89.8133 328.966 88.3053C328.91 88.2399 328.856 88.1771 328.805 88.1176C328.769 88.0741 328.73 88.028 328.689 87.9792C327.526 86.6026 324.546 83.0733 323.033 85.7169C322.087 87.3719 324.306 90.4914 325.361 91.5868C325.549 91.7816 325.782 92.0573 326.05 92.3733ZM284.802 124.859C283.353 123.169 283.505 120.037 284.326 118.081C284.995 116.489 286.113 118.46 286.761 119.601C286.919 119.88 287.049 120.108 287.138 120.224C287.428 120.603 287.845 120.955 288.273 121.316C289.166 122.068 290.107 122.861 290.045 124.025C289.895 126.871 286.076 126.343 284.802 124.859Z" fill="#211238"/>
<path fill-rule="evenodd" clip-rule="evenodd" d="M411.064 103.829C409.473 103.391 407.884 102.952 406.303 102.501C402.626 101.451 406.1 99.0871 408.286 99.2534C409.976 99.3816 411.628 99.9835 413.252 100.575C413.97 100.836 414.683 101.096 415.391 101.312C422.459 103.467 429.011 105.824 435.614 109.169C436.599 109.668 440.937 112.036 438.067 113.084C436.56 113.634 433.528 111.978 431.404 110.818C430.725 110.447 430.14 110.127 429.726 109.946C423.732 107.322 417.381 105.571 411.064 103.829ZM471.086 157.015C447.443 142.122 423.9 127.534 397.159 119.002C395.765 118.557 395.332 117.295 396.063 116.045C396.833 114.726 398.314 114.775 399.627 114.818L399.739 114.821C403.199 114.932 406.578 116.042 409.85 117.116L410.266 117.253C417.748 119.706 424.874 123.11 431.9 126.667C444.22 132.902 456.075 140.445 466.941 149.023C469.213 150.815 471.542 152.268 474.012 153.733C474.166 153.825 474.325 153.917 474.489 154.013C476.015 154.902 477.906 156.004 478.456 157.732C480.003 162.597 472.194 157.714 471.086 157.015ZM89.3084 152.589C80.6683 159.414 72.2252 166.52 64.414 174.31C61.6329 177.083 59.3152 180.255 56.9995 183.426C55.9392 184.878 54.8789 186.329 53.7747 187.741C53.6563 187.892 53.5258 188.069 53.3837 188.262C52.495 189.464 51.1654 191.264 49.7148 191.065C47.8688 190.813 47.4957 187.585 47.5545 186.175C47.7562 181.367 52.0804 176.724 55.1642 173.413C58.6331 169.691 62.3419 166.063 66.1294 162.674C70.2995 158.942 74.8251 155.735 79.4368 152.595C81.1221 151.448 82.781 150.234 84.4437 149.017C87.2475 146.967 90.0592 144.91 93.0162 143.156C95.2346 141.841 98.9181 141.34 97.7109 145.3C97.0055 147.613 94.2356 149.365 91.8185 150.893C90.8818 151.485 89.9984 152.044 89.3084 152.589ZM58.3616 143.126C63.2253 141.589 67.735 139.202 72.2448 136.815C75.1833 135.26 78.1223 133.705 81.1586 132.385C83.3421 131.436 85.5574 130.567 87.7721 129.698C89.7644 128.917 91.7561 128.136 93.7252 127.296C93.9106 127.217 94.1114 127.142 94.318 127.064C95.3493 126.677 96.5195 126.237 96.659 125.003C96.8502 123.295 95.8681 123.346 94.6683 123.408C94.5911 123.412 94.5124 123.416 94.4332 123.419C91.6986 123.544 88.8071 124.775 86.0746 125.938C84.9466 126.419 83.8451 126.887 82.7932 127.262C81.8565 127.596 80.9187 127.921 79.9815 128.246C77.0461 129.266 74.1192 130.282 71.2563 131.528C67.4471 133.186 63.5571 134.901 60.1267 137.287C60.0052 137.372 59.8784 137.458 59.7484 137.547C58.6125 138.324 57.2378 139.264 56.7465 140.546C56.2546 141.826 56.5256 143.707 58.3616 143.126Z" fill="#211238"/>
<path fill-rule="evenodd" clip-rule="evenodd" d="M259.727 110.151C260.186 108.782 265.871 93.8142 263.646 93.363C261.289 92.884 258.138 101.569 257.455 103.138C254.93 108.933 253.435 115.15 252.264 121.366C251.447 125.694 250.73 130.128 251.016 134.553C251.236 137.953 252.619 138.468 254.898 140.552C254.898 130.223 256.444 119.928 259.727 110.151Z" fill="#211238"/>
</svg>
